<mxfile host="app.diagrams.net" agent="Mozilla/5.0 (Macintosh; Intel Mac OS X 10_15_7) AppleWebKit/537.36 (KHTML, like Gecko) Chrome/126.0.0.0 Safari/537.36" version="28.1.2">
  <diagram name="第 1 页" id="z53H8anDKn18l9fQVAS5">
    <mxGraphModel dx="1257" dy="584" grid="1" gridSize="10" guides="1" tooltips="1" connect="1" arrows="1" fold="1" page="1" pageScale="1" pageWidth="827" pageHeight="1169" math="0" shadow="0">
      <root>
        <mxCell id="0" />
        <mxCell id="1" parent="0" />
        <mxCell id="jAgenMHRwJlm6DAs44tQ-5" style="edgeStyle=orthogonalEdgeStyle;curved=1;rounded=0;orthogonalLoop=1;jettySize=auto;html=1;exitX=1;exitY=0.5;exitDx=0;exitDy=0;entryX=0;entryY=0.5;entryDx=0;entryDy=0;" edge="1" parent="1" source="jAgenMHRwJlm6DAs44tQ-1" target="jAgenMHRwJlm6DAs44tQ-3">
          <mxGeometry relative="1" as="geometry" />
        </mxCell>
        <mxCell id="jAgenMHRwJlm6DAs44tQ-1" value="ByterTrack" style="ellipse;whiteSpace=wrap;html=1;fillColor=#dae8fc;strokeColor=#6c8ebf;" vertex="1" parent="1">
          <mxGeometry x="110" y="90" width="120" height="80" as="geometry" />
        </mxCell>
        <mxCell id="jAgenMHRwJlm6DAs44tQ-6" style="edgeStyle=orthogonalEdgeStyle;curved=1;rounded=0;orthogonalLoop=1;jettySize=auto;html=1;exitX=1;exitY=0.5;exitDx=0;exitDy=0;entryX=0;entryY=0.5;entryDx=0;entryDy=0;" edge="1" parent="1" source="jAgenMHRwJlm6DAs44tQ-2" target="jAgenMHRwJlm6DAs44tQ-3">
          <mxGeometry relative="1" as="geometry" />
        </mxCell>
        <mxCell id="jAgenMHRwJlm6DAs44tQ-7" style="edgeStyle=orthogonalEdgeStyle;curved=1;rounded=0;orthogonalLoop=1;jettySize=auto;html=1;exitX=0.5;exitY=0;exitDx=0;exitDy=0;entryX=0.5;entryY=1;entryDx=0;entryDy=0;" edge="1" parent="1" source="jAgenMHRwJlm6DAs44tQ-2" target="jAgenMHRwJlm6DAs44tQ-1">
          <mxGeometry relative="1" as="geometry" />
        </mxCell>
        <mxCell id="jAgenMHRwJlm6DAs44tQ-8" value="控制ByterTrack是否可以Pub twist消息" style="edgeLabel;html=1;align=center;verticalAlign=middle;resizable=0;points=[];" vertex="1" connectable="0" parent="jAgenMHRwJlm6DAs44tQ-7">
          <mxGeometry x="0.2833" relative="1" as="geometry">
            <mxPoint as="offset" />
          </mxGeometry>
        </mxCell>
        <mxCell id="jAgenMHRwJlm6DAs44tQ-2" value="F710 Ctrl Node" style="ellipse;whiteSpace=wrap;html=1;fillColor=#d5e8d4;strokeColor=#82b366;" vertex="1" parent="1">
          <mxGeometry x="100" y="280" width="120" height="80" as="geometry" />
        </mxCell>
        <mxCell id="jAgenMHRwJlm6DAs44tQ-3" value="cmd_val/机器人控制节点" style="ellipse;whiteSpace=wrap;html=1;fillColor=#f5f5f5;fontColor=#333333;strokeColor=#666666;" vertex="1" parent="1">
          <mxGeometry x="390" y="180" width="120" height="80" as="geometry" />
        </mxCell>
        <mxCell id="jAgenMHRwJlm6DAs44tQ-9" value="方式1" style="text;strokeColor=none;align=center;fillColor=none;html=1;verticalAlign=middle;whiteSpace=wrap;rounded=0;fontSize=17;fontStyle=1" vertex="1" parent="1">
          <mxGeometry x="90" y="40" width="60" height="30" as="geometry" />
        </mxCell>
        <mxCell id="jAgenMHRwJlm6DAs44tQ-10" value="方式2" style="text;strokeColor=none;align=center;fillColor=none;html=1;verticalAlign=middle;whiteSpace=wrap;rounded=0;fontSize=17;fontStyle=1" vertex="1" parent="1">
          <mxGeometry x="610" y="40" width="60" height="30" as="geometry" />
        </mxCell>
        <mxCell id="jAgenMHRwJlm6DAs44tQ-19" style="edgeStyle=orthogonalEdgeStyle;curved=1;rounded=0;orthogonalLoop=1;jettySize=auto;html=1;exitX=1;exitY=0.5;exitDx=0;exitDy=0;entryX=0;entryY=0.5;entryDx=0;entryDy=0;" edge="1" parent="1" source="jAgenMHRwJlm6DAs44tQ-12" target="jAgenMHRwJlm6DAs44tQ-16">
          <mxGeometry relative="1" as="geometry" />
        </mxCell>
        <mxCell id="jAgenMHRwJlm6DAs44tQ-20" value="twist msg" style="edgeLabel;html=1;align=center;verticalAlign=middle;resizable=0;points=[];" vertex="1" connectable="0" parent="jAgenMHRwJlm6DAs44tQ-19">
          <mxGeometry x="-0.4615" y="10" relative="1" as="geometry">
            <mxPoint x="9" as="offset" />
          </mxGeometry>
        </mxCell>
        <mxCell id="jAgenMHRwJlm6DAs44tQ-12" value="ByterTrack" style="ellipse;whiteSpace=wrap;html=1;fillColor=#dae8fc;strokeColor=#6c8ebf;" vertex="1" parent="1">
          <mxGeometry x="620" y="170" width="120" height="80" as="geometry" />
        </mxCell>
        <mxCell id="jAgenMHRwJlm6DAs44tQ-13" style="edgeStyle=orthogonalEdgeStyle;curved=1;rounded=0;orthogonalLoop=1;jettySize=auto;html=1;exitX=1;exitY=0.5;exitDx=0;exitDy=0;entryX=0;entryY=0.5;entryDx=0;entryDy=0;" edge="1" parent="1" source="jAgenMHRwJlm6DAs44tQ-16" target="jAgenMHRwJlm6DAs44tQ-17">
          <mxGeometry relative="1" as="geometry" />
        </mxCell>
        <mxCell id="jAgenMHRwJlm6DAs44tQ-21" value="Ctrl Node决定是下发手柄的&lt;br&gt;twist还是Bytetrack twist" style="edgeLabel;html=1;align=center;verticalAlign=middle;resizable=0;points=[];" vertex="1" connectable="0" parent="jAgenMHRwJlm6DAs44tQ-13">
          <mxGeometry x="-0.0125" relative="1" as="geometry">
            <mxPoint as="offset" />
          </mxGeometry>
        </mxCell>
        <mxCell id="jAgenMHRwJlm6DAs44tQ-16" value="F710 Ctrl Node" style="ellipse;whiteSpace=wrap;html=1;fillColor=#d5e8d4;strokeColor=#82b366;" vertex="1" parent="1">
          <mxGeometry x="800" y="170" width="120" height="80" as="geometry" />
        </mxCell>
        <mxCell id="jAgenMHRwJlm6DAs44tQ-17" value="cmd_val/机器人控制节点" style="ellipse;whiteSpace=wrap;html=1;fillColor=#f5f5f5;fontColor=#333333;strokeColor=#666666;" vertex="1" parent="1">
          <mxGeometry x="1095" y="170" width="120" height="80" as="geometry" />
        </mxCell>
      </root>
    </mxGraphModel>
  </diagram>
</mxfile>
